<?xml version="1.0" standalone="no"?>
<!DOCTYPE svg PUBLIC "-//W3C//DTD SVG 20010904//EN"
 "http://www.w3.org/TR/2001/REC-SVG-20010904/DTD/svg10.dtd">
<svg version="1.0" xmlns="http://www.w3.org/2000/svg"
 width="700.000000pt" height="700.000000pt" viewBox="0 0 700.000000 700.000000"
 preserveAspectRatio="xMidYMid meet">
<metadata>
Created by potrace 1.14, written by Peter Selinger 2001-2017
</metadata>
<g transform="translate(0.000000,700.000000) scale(0.100000,-0.100000)"
fill="#000000" stroke="none">
<path d="M4257 6034 c-1 -1 -34 -4 -73 -7 -151 -13 -347 -64 -510 -134 -556
-240 -963 -809 -1000 -1398 -3 -49 -7 -106 -8 -125 l-3 -35 -58 -2 c-286 -8
-581 -94 -823 -240 -456 -276 -764 -764 -809 -1283 -27 -307 23 -597 149 -870
30 -66 112 -212 135 -240 6 -8 33 -44 60 -80 64 -86 220 -242 313 -311 308
-230 643 -342 1025 -343 85 0 223 10 255 19 8 2 33 6 55 10 96 14 268 69 389
124 224 101 456 284 612 481 229 288 358 642 368 1009 1 53 2 55 31 56 17 2
77 6 134 9 58 4 108 9 111 11 4 3 22 6 41 9 53 6 191 44 271 72 668 241 1113
875 1111 1584 0 272 -50 492 -168 735 -170 352 -456 633 -809 795 -126 58
-277 107 -386 125 -19 3 -42 8 -50 10 -41 11 -353 28 -363 19z m260 -219 c223
-22 470 -114 668 -249 103 -70 278 -239 353 -341 108 -146 190 -319 237 -498
24 -90 28 -113 43 -247 41 -363 -84 -767 -332 -1068 -265 -323 -678 -526
-1092 -536 -68 -1 -74 2 -80 45 -18 130 -89 349 -156 482 -137 274 -367 524
-630 685 -150 92 -348 172 -513 207 -154 32 -139 24 -138 80 4 290 94 569 258
810 189 276 482 487 805 581 47 14 101 27 120 30 19 3 41 7 48 9 7 3 50 8 95
11 45 4 83 8 85 9 4 4 159 -3 229 -10z m-1732 -1699 c398 -41 753 -230 1003
-534 319 -387 419 -927 259 -1403 -152 -452 -526 -812 -982 -944 -509 -147
-1051 -15 -1434 349 -328 314 -491 755 -448 1213 8 82 29 194 53 274 9 30 16
55 16 56 -3 7 65 157 100 223 111 209 307 418 518 552 261 165 606 246 915
214z"/>
<path d="M2587 3340 c-14 -11 -32 -33 -39 -48 -8 -15 -54 -100 -102 -189 l-88
-162 -86 -47 c-194 -105 -219 -118 -257 -140 -76 -42 -99 -107 -57 -163 16
-22 134 -92 343 -202 56 -30 56 -30 155 -211 54 -100 107 -192 118 -205 12
-13 38 -28 59 -32 30 -7 43 -5 68 13 32 22 39 32 130 202 110 206 108 202 184
243 338 180 345 185 345 249 0 23 -7 49 -18 62 -10 12 -105 70 -211 128 l-194
107 -99 185 c-54 102 -110 195 -124 208 -32 29 -92 30 -127 2z m139 -444 c64
-118 58 -113 231 -203 40 -21 73 -41 73 -44 0 -4 -24 -19 -52 -33 -56 -28
-113 -59 -164 -90 -22 -13 -50 -53 -95 -137 -35 -65 -66 -119 -69 -119 -3 0
-31 49 -63 108 -33 59 -64 114 -70 123 -11 13 -95 64 -209 124 -21 11 -38 22
-38 25 0 3 19 16 43 28 23 11 77 41 121 65 84 46 87 49 178 225 25 49 35 59
44 50 7 -7 38 -62 70 -122z"/>
</g>
</svg>
