<?xml version="1.0" standalone="no"?>
<!DOCTYPE svg PUBLIC "-//W3C//DTD SVG 20010904//EN"
 "http://www.w3.org/TR/2001/REC-SVG-20010904/DTD/svg10.dtd">
<svg version="1.0" xmlns="http://www.w3.org/2000/svg"
 width="700.000000pt" height="700.000000pt" viewBox="0 0 700.000000 700.000000"
 preserveAspectRatio="xMidYMid meet">
<metadata>
Created by potrace 1.14, written by Peter Selinger 2001-2017
</metadata>
<g transform="translate(0.000000,700.000000) scale(0.100000,-0.100000)"
fill="#000000" stroke="none">
<path d="M5177 6619 c-85 -29 -135 -95 -143 -192 -8 -94 56 -186 150 -217 30
-9 124 -13 360 -13 177 1 324 -1 329 -4 4 -2 -99 -110 -228 -240 -129 -129
-235 -238 -235 -241 0 -3 51 -55 114 -116 62 -61 130 -130 150 -153 l37 -41
-316 -315 c-346 -345 -357 -354 -455 -345 -146 14 -241 172 -181 303 12 27
122 144 330 353 l313 312 -68 56 c-38 30 -76 61 -84 67 -29 23 -195 134 -225
151 -16 9 -48 28 -70 41 -57 36 -309 158 -380 184 -33 13 -69 27 -80 32 -56
23 -270 87 -351 103 -10 3 -39 9 -64 15 -251 56 -662 72 -950 35 -45 -6 -278
-48 -315 -58 -410 -103 -772 -278 -1105 -535 -224 -173 -453 -416 -621 -661
-241 -350 -429 -835 -475 -1225 -4 -27 -8 -52 -9 -55 -8 -13 -19 -227 -19
-360 0 -225 11 -345 50 -545 138 -724 543 -1365 1139 -1805 264 -195 578 -352
891 -444 118 -35 313 -79 409 -91 28 -4 61 -9 75 -11 108 -17 415 -23 589 -11
57 4 107 9 110 11 3 2 33 6 66 10 33 3 114 18 180 31 160 34 146 30 260 66
849 266 1528 893 1855 1713 91 229 144 432 184 706 26 176 26 558 0 730 -53
359 -122 593 -264 896 -64 136 -238 429 -270 454 -3 3 -17 21 -30 40 -13 19
-43 58 -67 87 -24 28 -43 57 -43 63 0 10 463 480 473 480 2 0 4 -145 4 -323 0
-177 4 -338 8 -357 21 -98 118 -171 220 -166 83 4 149 48 192 128 16 30 17 81
17 663 0 483 -3 639 -13 667 -7 21 -28 53 -48 73 -73 73 -29 69 -723 70 -553
0 -630 -2 -673 -16z m-1592 -1608 c87 -41 126 -101 131 -200 2 -35 5 -65 6
-66 2 -2 37 -5 79 -9 271 -22 526 -229 609 -495 27 -86 31 -105 35 -188 5 -94
-10 -138 -65 -193 -94 -95 -223 -91 -310 7 -42 48 -57 88 -61 163 -8 142 -130
270 -258 270 l-31 0 0 -67 c-1 -73 -1 -551 0 -569 0 -5 44 -25 98 -43 53 -18
106 -36 117 -41 11 -5 47 -18 80 -30 240 -86 386 -251 421 -475 46 -304 -64
-569 -300 -720 -100 -64 -205 -94 -337 -98 l-74 -2 -8 -69 c-13 -120 -76 -195
-178 -214 -90 -17 -178 24 -225 104 -28 47 -31 59 -33 135 l-1 45 -47 3 c-107
6 -177 24 -269 67 -243 113 -417 390 -410 652 3 82 24 130 79 177 57 49 130
64 200 42 96 -30 143 -95 157 -216 18 -157 109 -265 236 -278 l54 -6 0 34 c2
172 1 611 -2 614 -2 2 -77 29 -168 60 -91 32 -200 76 -244 98 -133 69 -234
188 -279 332 -24 75 -28 101 -31 215 -6 197 55 357 188 494 134 137 278 198
469 198 56 0 67 3 67 16 2 74 9 122 23 147 55 107 180 154 282 106z"/>
<path d="M3190 4300 c-67 -7 -109 -28 -148 -76 -38 -46 -56 -117 -49 -193 9
-108 40 -141 180 -187 45 -15 88 -31 95 -37 13 -11 13 -16 13 253 0 251 1 237
-18 242 -10 2 -43 1 -73 -2z"/>
<path d="M3719 3138 c-2 -205 1 -431 5 -436 7 -7 78 -5 130 4 59 9 129 83 146
153 24 101 -1 211 -55 247 -23 15 -201 84 -217 84 -5 0 -8 -24 -9 -52z"/>
</g>
</svg>
